<?xml version="1.0" encoding="UTF-8"?>
<svg
  version="1.1"
  viewBox="0 0 2048 2048"
  width="1280"
  height="1280"
  xmlns="http://www.w3.org/2000/svg"
>
<path transform="translate(0)" d="m0 0h2048v2048h-2048z" fill="#FBFBFB"/>
<path transform="translate(677,676)" d="m0 0h32l17 3 18 6 11 6 12 9 10 9 15 15 11 14 11 16 9 15 13 24 13 29 11 33 5 25 1 9v20l-3 19-6 21-7 16-8 11-12 13-9 10-7 7-17 13-15 10-20 12-25 14-32 17-11 5 8 16 10 19 17 33 14 27v5l-8 10-11 9-15 11-26 17-22 13-22 12-26 13-18 7-4 1h-14l-6-4-6-10-23-45-10-19-18-35-42-81-58-112-29-56-15-29-11-21v-8l4-8 11-13 14-12 18-13 20-13 25-15 28-16 28-15 29-15 36-18 29-13 28-11 22-7 18-4z" fill="#BCBCBC"/>
<path transform="translate(819,1210)" d="m0 0h120l13 12 7 7 8 7 8 8 4 3 86 1 8 4 5 6 1 3v273l-4 8-8 5-3 1h-370l-9-4-4-5-2-4v-274l3-6 6-5 5-2 86-1 31-29 7-7z" fill="#BCBCBC"/>
<path transform="translate(988,858)" d="m0 0h23l21 3 19 5 19 7 25 12 16 9 15 10 10 8 10 9 7 7 10 13 10 17 5 13 3 15v32l-5 25-10 30-11 24-11 21-12 18-11 14-12 13-11 9-10 7-19 10-20 6-20 3h-21l-21-3-19-5-19-7-25-12-18-10-17-12-11-9-9-9-10-13-9-16-6-13-4-16-1-8v-21l3-21 6-23 8-22 11-25 9-17 11-17 11-14 12-13 14-11 14-9 16-7 14-4z" fill="#BCBCBC"/>
<path transform="translate(1289,995)" d="m0 0h11l21 3 21 6 21 9 16 8 23 12 21 13 18 13 14 11 13 13 6 9 1 3v8l-8 14-8 10-9 10-8 8-13 10-7 4-9 1-8-7-7-7-7-8-11-10-10-7-16-8-9-3-9-1-7 3-3 5 1 9 6 8 16 16 8 7 11 11 9 11 11 15 10 18 4 13 1 6v27l-4 16-6 15-6 11-8 10-12 12-14 9-15 6-15 3h-21l-20-3-20-6-25-10-27-13-24-14-15-10-19-14-14-12-12-12-7-12-1-9 11-20 13-18 13-15 10-8 5-2 7 1 17 17 8 7 14 14 11 9 12 9 15 8 13 4 7-1 5-4 2-4-1-9-9-13-12-12-8-7-12-13-11-14-10-14-9-16-4-13-2-12v-14l3-16 6-16 9-16 9-12 7-8 13-10 14-7 15-4z" fill="#BCBCBC"/>
<path transform="translate(1020,578)" d="m0 0h10l104 41 99 39 66 26 5 4 3 6-1 7-30 76-22 56-14 35-4 5-5 2-9-1-46-18-56-22-81-32-31-12-10 1-70 14-2-1 22-56 17-43 22-56 17-43 9-23 4-4z" fill="#BDBDBD"/>
<path transform="translate(1523,1097)" d="m0 0 7 1 65 31 31 15 23 11 34 16 39 19 28 13 5 5v9l-7 21-10 22-13 22-11 14-8 8-6 3-7-1-41-20-9-3-13 27-13 28-20 41-13 28-20 41-5 11-6 1-16-4-20-7-26-11-31-15-11-7-5-6v-7l20-41 13-28 21-43 13-28 16-33 1-3-39-19-17-8-3-4v-11l4-15 9-21 10-19 10-14 11-13z" fill="#BCBCBC"/>
<path transform="translate(872,1283)" d="m0 0h14l21 3 17 5 16 7 14 9 13 11 7 7 11 15 8 16 5 15 3 17v19l-3 18-6 17-8 15-9 12-9 10-11 9-14 9-17 8-18 5-11 2h-32l-20-4-16-6-17-9-12-9-12-11-8-10-8-13-7-15-5-19-1-7v-23l3-16 5-15 8-15 8-11 9-10 11-10 15-10 15-7 15-5 15-3z" fill="#FBFBFB"/>
<path transform="translate(818,501)" d="m0 0h9l14 2 16 5 11 6 12 11 8 11 5 12 3 15v19l-3 20-5 18-8 16-8 10-8 7-12 7-13 4-6 1h-19l-18-4-12-5-10-7-7-6-8-11-6-13-3-12-1-18 2-19 5-20 6-14 7-10 8-9 14-9 13-5z" fill="#BCBCBC"/>
<path transform="translate(866,1324)" d="m0 0h26l16 4 16 8 10 8 9 9 7 11 5 11 3 13v20l-4 15-7 14-8 10-7 7-14 9-11 5-17 4h-22l-14-3-12-5-12-7-10-9-7-8-8-14-4-12-1-5v-23l4-14 6-12 7-9 11-11 13-8 12-5z" fill="#BCBCBC"/>
<path transform="translate(625,470)" d="m0 0h10l16 3 14 5 4 5 18 56 5 16 11-65 2-5 3-1 15 1 18 4 5 3-1 9-24 141-3 2h-12l-17-3-10-3-4-6-23-69-1-2-11 65-1 4-2 1h-11l-21-4-7-3 1-12 22-130 2-11z" fill="#BDBDBD"/>
<path transform="translate(1289,1391)" d="m0 0 6 1 32 15 33 15 8 4 1 4-4 12-8 16-4 4-7-1-32-15-3-1-3 9-5 11 16 8 11 5v7l-5 12-7 10-5 1-24-11-3 4-6 13-1 4 5 1 33 15 2 3-2 10-5 12-7 9-2 2-7-1-25-12-33-15-12-6-2-2 1-9 17-36 15-33 15-32 14-31z" fill="#BCBCBC"/>
<path transform="translate(1148,1327)" d="m0 0 12 3 15 6 13 7 9 8 1 6-4 43v4l12-12 8-7 16-15 2-1h11l16 6 17 9 4 3-2 4-14 11-16 13-14 11-17 14-14 11-6 5-15 33-8 17-1 1h-8l-15-5-13-7-8-7-1-3 16-34 7-15-4-108z" fill="#BCBCBC"/>
<path transform="translate(1383,1435)" d="m0 0 7 1 39 18 41 19 8 4v9l-5 13-6 10-5 5-6-1-22-10-3 9-15 32-15 33-14 30-4 1-13-4-21-11-3-3 1-5 15-33 16-34 12-26 3-6v-2l-24-11-2-3 1-9 5-12 6-10z" fill="#BCBCBC"/>
<path transform="translate(1037,941)" d="m0 0h8l9 4 7 8 1 4v8l-3 15-5 16-10 25-14 30-15 28-10 15-8 10-5 6-8 5-8 1-9-3-6-5-3-6v-16l5-19 8-22 9-20 12-25 10-19 12-19 11-13 7-6z" fill="#FBFBFB"/>
<path transform="translate(604,830)" d="m0 0h8l9 4 11 9 7 7 10 14 10 18 8 17 7 21 2 15v7l-3 10-10 9-21 11-3-1-43-83-15-29-7-13 1-3 21-11z" fill="#FBFBFB"/>
<path transform="translate(822,545)" d="m0 0h7l8 3 5 4 5 8 2 7v18l-4 15-5 10-7 7-6 3h-13l-8-4-6-7-3-7-1-5v-13l3-15 4-9 6-8 9-6z" fill="#FBFBFB"/>
<path transform="translate(677,676)" d="m0 0h32l17 3 18 6 11 6 12 9 10 9 15 15 11 14 11 16 9 15 1 5-3-4-10-16-10-14-8-10-11-12-8-8-14-11-13-8-19-7-16-3h-39l-16 3-26 8-28 11-27 12-29 14-28 14-22 12-28 15-24 14-23 14-15 10-18 13-13 11-10 10-4 5 1-5 11-13 14-12 18-13 20-13 25-15 28-16 28-15 29-15 36-18 29-13 28-11 22-7 18-4z" fill="#8C8C8C"/>
<path transform="translate(819,1210)" d="m0 0h120l13 12 7 7 8 7 8 8 4 3 86 1 8 4 5 6-1 4-6-7-5-2-85-1-5-3-10-10-8-7-8-8-8-7-3-2h-120l-11 9-12 12-8 7-7 7-4 2-85 1-8 4-4 5 1-6 7-6 5-2 86-1 31-29 7-7z" fill="#8C8C8C"/>
<path transform="translate(1020,578)" d="m0 0h10l104 41 99 39 66 26 5 4 2 3-1 4-4-5-21-9-31-12-56-22-94-37-43-17-26-10h-11l-6 4 1-5 3-3z" fill="#8B8B8B"/>
<path transform="translate(988,858)" d="m0 0h23l21 3 19 5 19 7 25 12 16 9 15 10 10 8 10 9 7 7 10 13 3 5-1 3-10-14-12-13-16-13-17-11-22-12-17-8-22-8-21-5-15-2h-29l-18 3-18 6-16 8-14 10-10 9-11 11-13 18-9 15-2 2 1-5 10-17 10-13 12-14 11-10 16-11 16-8 14-5 16-3z" fill="#8D8D8D"/>
<path transform="translate(1175,730)" d="m0 0 29 11 2 1-1 6-8 20-2 1-30-12 1-6 8-20z" fill="#FBFBFB"/>
<path transform="translate(1115,707)" d="m0 0 10 3 22 9-1 5-8 20-4 1-28-11-1-2z" fill="#FBFBFB"/>
<path transform="translate(1056,684)" d="m0 0 5 1 26 10 1 4-9 22-3 1-26-10-4-2z" fill="#FBFBFB"/>
<path transform="translate(1523,1097)" d="m0 0 7 1 65 31 31 15 23 11 34 16 39 19 28 13 4 3-1 4-19-10-29-14-28-13-43-21-28-13-41-20-28-13-8-4-9 1-8 6-7 7-11 16-4 7-1-3 7-12 10-13 7-8z" fill="#8C8C8C"/>
<path transform="translate(1289,995)" d="m0 0h11l21 3 21 6 21 9 16 8 23 12 21 13 18 13 14 11 13 13 5 7-1 4-8-11-9-9-17-13-16-11-21-13-29-15-19-9-16-6-19-5-14-2h-19l-16 3-16 7-13 9-11 11-10 15-2 2 1-5 8-12 11-13 13-10 14-7 15-4z" fill="#8C8C8C"/>
<path transform="translate(988,1448)" d="m0 0 2 1-8 14-8 10-9 10-8 7-15 10-19 9-18 5-13 2h-26l-17-3-16-5-14-6-14-9-11-9-10-10-10-14 1-2 9 11 9 10 14 11 14 8 16 7 15 4 11 2h32l19-4 15-5 19-10 13-10 9-8 11-14z" fill="#8C8C8C"/>
<path transform="translate(1170,1162)" d="m0 0 7 1 17 17 8 7 14 14 11 9 12 9 15 8 13 4 7-1 4-3 2 1-5 6-2 1h-9l-16-6-14-9-11-9-10-9-16-15-17-17-5-3h-6l-10 6-12 12-12 16-10 16-2 2 1-5 9-15 10-13 12-14 10-8z" fill="#8D8D8D"/>
<path transform="translate(817,1211)" d="m0 0 2 1-8 8-7 8-8 8-8 7-7 7-4 2-85 1-8 4-4 5 1-6 7-6 5-2 86-1 31-29z" fill="#878787"/>
<path transform="translate(866,1324)" d="m0 0h26l16 4 16 8 10 8 9 9 7 11 2 4-1 3-7-12-11-12-14-9-8-4-12-4-14-2h-12l-17 3-16 6-11 7-12 11-7 10-2 2 1-5 7-10 12-12 13-8 12-5z" fill="#8C8C8C"/>
<path transform="translate(818,501)" d="m0 0h9l14 2 16 5 11 6 12 11 8 11 1 5-4-5-7-9-8-7-12-7-15-5-13-2h-15l-12 2-15 6-11 8-8 8-5 8-1-3 6-9 8-9 14-9 13-5z" fill="#8D8D8D"/>
<path transform="translate(1383,1435)" d="m0 0 7 1 39 18 41 19 8 4-1 4-25-12-33-15-30-14h-6l-5 5-5 9-1-3 6-11z" fill="#8B8B8B"/>
<path transform="translate(1289,1391)" d="m0 0 6 1 32 15 33 15 8 4 1 4-6-2-39-18-30-14h-6l-2 1 1-5z" fill="#8C8C8C"/>
<path transform="translate(1232,1369)" d="m0 0h11l16 6 17 9 4 3v2l-5-1-19-10-12-4h-12l-6 4-10 10-8 7-10 9h-2l2-4 8-8 8-7 16-15z" fill="#8A8A8A"/>
<path transform="translate(1328,1130)" d="m0 0 7 6 14 14 8 7 11 11 9 11 11 15 5 9-1 3-9-15-9-11-12-14-8-8-8-7-10-9-8-10z" fill="#919191"/>
<path transform="translate(1016,1076)" d="m0 0 1 2-9 15-9 12-10 11-6 3h-10l-8-4-5-6 1-2 8 6 7 2 8-1 9-6 12-15z" fill="#8B8B8B"/>
<path transform="translate(1148,1327)" d="m0 0 12 3 15 6 13 7 9 8-1 4-4-5-16-9-15-6-6-2-7-1z" fill="#8D8D8D"/>
<path transform="translate(625,470)" d="m0 0h10l16 3 14 5 3 3-1 4-6-4-18-5-6-1h-12l-2 1v-5z" fill="#8B8B8B"/>
<path transform="translate(708,484)" d="m0 0 15 1 18 4 5 3-1 3-15-4-12-2h-11l-3 1 1-5z" fill="#8C8C8C"/>
<path transform="translate(842,606)" d="m0 0 1 2-6 8-7 6-5 2h-10l-10-5-5-7 1-2 8 7 5 2h13l8-5z" fill="#8F8F8F"/>
<path transform="translate(919,885)" d="m0 0m-2 1 2 1-12 13-10 10-13 18-9 15-2 2 1-5 10-17 10-13 12-14z" fill="#909090"/>
<path transform="translate(1281,1519)" d="m0 0 6 1 30 14 1 5-20-9-16-8z" fill="#8C8C8C"/>
<path transform="translate(671,953)" d="m0 0 2 1-7 8-11 7-13 6-2-2 8-5 15-8z" fill="#8D8D8D"/>
<path transform="translate(1167,758)" d="m0 0 5 1 23 9 1 3-8-1-21-9z" fill="#8C8C8C"/>
<path transform="translate(1049,712)" d="m0 0 7 1 20 8 2 3-4 1-23-9z" fill="#8B8B8B"/>
<path transform="translate(1108,735)" d="m0 0 6 1 20 8 3 3-4 1-23-9z" fill="#8B8B8B"/>
<path transform="translate(1305,1468)" d="m0 0 6 1 19 9v4l-5-2-18-8z" fill="#8B8B8B"/>
<path transform="translate(797,734)" d="m0 0 4 1 13 19 9 15 1 5-3-4-10-16-10-14z" fill="#959595"/>
<path transform="translate(1224,1376)" d="m0 0m-1 1m-1 1m-1 1m-2 1 2 1-16 17-7 6h-2l2-4 8-8 8-7z" fill="#8E8E8E"/>
<path transform="translate(1145,1185)" d="m0 0v3l-10 13-10 16-2 2 1-5 9-15 10-13z" fill="#939393"/>
<path transform="translate(894,910)" d="m0 0h2l-2 4-10 14-9 15-2 2 1-5 10-17z" fill="#959595"/>
<path transform="translate(817,1211)" d="m0 0 2 1-8 8-7 8-8 8-2-1 11-11 7-8z" fill="#919191"/>
<path transform="translate(1016,1076)" d="m0 0 1 2-9 15-6 8h-2l2-4 10-15z" fill="#969696"/>
<path transform="translate(1502,1116)" d="m0 0h2l-2 4-10 15-3 4 1-5 10-16z" fill="#969696"/>
<path transform="translate(1230,1370)" d="m0 0 2 1-12 13-4 4-2-1 10-10z" fill="#8D8D8D"/>
<path transform="translate(1210,1389)" d="m0 0m-1 1m-1 1m-2 1 2 1-7 7-3 4h-2l2-4z" fill="#999"/>
</svg>
